<svg width="25" height="24" viewBox="0 0 25 24" fill="none" xmlns="http://www.w3.org/2000/svg">
<path d="M18.5 20.5H17.5V20.25C17.5 19.15 16.6 18.25 15.5 18.25H13.25V15.96C13 15.99 12.75 16 12.5 16C12.25 16 12 15.99 11.75 15.96V18.25H9.5C8.4 18.25 7.5 19.15 7.5 20.25V20.5H6.5C6.09 20.5 5.75 20.84 5.75 21.25C5.75 21.66 6.09 22 6.5 22H18.5C18.91 22 19.25 21.66 19.25 21.25C19.25 20.84 18.91 20.5 18.5 20.5Z" fill="#2B70B1"/>
<path d="M6.02027 11.64C5.36027 11.39 4.78027 10.98 4.32027 10.52C3.39027 9.49 2.78027 8.26 2.78027 6.82C2.78027 5.38 3.91027 4.25 5.35027 4.25H5.91027C5.65027 4.78 5.50027 5.37 5.50027 6V9C5.50027 9.94 5.68027 10.83 6.02027 11.64Z" fill="#2B70B1"/>
<path d="M22.2205 6.82C22.2205 8.26 21.6105 9.49 20.6805 10.52C20.2205 10.98 19.6405 11.39 18.9805 11.64C19.3205 10.83 19.5005 9.94 19.5005 9V6C19.5005 5.37 19.3505 4.78 19.0905 4.25H19.6505C21.0905 4.25 22.2205 5.38 22.2205 6.82Z" fill="#2B70B1"/>
<path d="M15.5 2H9.5C7.29 2 5.5 3.79 5.5 6V9C5.5 12.87 8.63 16 12.5 16C16.37 16 19.5 12.87 19.5 9V6C19.5 3.79 17.71 2 15.5 2ZM15.34 8.45L14.72 9.21C14.62 9.32 14.55 9.54 14.56 9.69L14.62 10.67C14.66 11.27 14.23 11.58 13.67 11.36L12.76 11C12.62 10.95 12.38 10.95 12.24 11L11.33 11.36C10.77 11.58 10.34 11.27 10.38 10.67L10.44 9.69C10.45 9.54 10.38 9.32 10.28 9.21L9.66 8.45C9.27 7.99 9.44 7.48 10.02 7.33L10.97 7.09C11.12 7.05 11.3 6.91 11.38 6.78L11.91 5.96C12.24 5.45 12.76 5.45 13.09 5.96L13.62 6.78C13.7 6.91 13.88 7.05 14.03 7.09L14.98 7.33C15.56 7.48 15.73 7.99 15.34 8.45Z" fill="#2B70B1"/>
<path opacity="0.4" d="M15.3397 8.45014L14.7197 9.21014C14.6197 9.32014 14.5497 9.54014 14.5597 9.69014L14.6197 10.6701C14.6597 11.2701 14.2297 11.5801 13.6697 11.3601L12.7597 11.0001C12.6197 10.9501 12.3797 10.9501 12.2397 11.0001L11.3297 11.3601C10.7697 11.5801 10.3397 11.2701 10.3797 10.6701L10.4397 9.69014C10.4497 9.54014 10.3797 9.32014 10.2797 9.21014L9.65975 8.45014C9.26975 7.99014 9.43975 7.48014 10.0197 7.33014L10.9697 7.09014C11.1197 7.05014 11.2997 6.91014 11.3797 6.78014L11.9097 5.96014C12.2397 5.45014 12.7597 5.45014 13.0897 5.96014L13.6197 6.78014C13.6997 6.91014 13.8797 7.05014 14.0297 7.09014L14.9797 7.33014C15.5597 7.48014 15.7297 7.99014 15.3397 8.45014Z" fill="#2B70B1"/>
</svg>
